<mxfile host="app.diagrams.net" agent="Mozilla/5.0 (Windows NT 10.0; Win64; x64) AppleWebKit/537.36 (KHTML, like Gecko) Chrome/132.0.0.0 Safari/537.36" version="26.0.14">
  <diagram name="Página-1" id="3dnkntU0IXgfalLunMqd">
    <mxGraphModel dx="1035" dy="1720" grid="1" gridSize="10" guides="1" tooltips="1" connect="1" arrows="1" fold="1" page="1" pageScale="1" pageWidth="827" pageHeight="1169" math="0" shadow="0">
      <root>
        <mxCell id="0" />
        <mxCell id="1" parent="0" />
        <mxCell id="O2b9Vi96orQ5hWpseoit-1" value="EVENTO" style="rounded=0;whiteSpace=wrap;html=1;" parent="1" vertex="1">
          <mxGeometry x="354" y="315" width="120" height="60" as="geometry" />
        </mxCell>
        <mxCell id="O2b9Vi96orQ5hWpseoit-2" value="&lt;u&gt;Id_evento&lt;/u&gt;" style="ellipse;whiteSpace=wrap;html=1;" parent="1" vertex="1">
          <mxGeometry x="600" y="430" width="80" height="40" as="geometry" />
        </mxCell>
        <mxCell id="O2b9Vi96orQ5hWpseoit-3" value="" style="endArrow=none;html=1;rounded=0;" parent="1" source="O2b9Vi96orQ5hWpseoit-1" target="O2b9Vi96orQ5hWpseoit-2" edge="1">
          <mxGeometry width="50" height="50" relative="1" as="geometry">
            <mxPoint x="339" y="350" as="sourcePoint" />
            <mxPoint x="389" y="300" as="targetPoint" />
          </mxGeometry>
        </mxCell>
        <mxCell id="O2b9Vi96orQ5hWpseoit-4" value="Nombre" style="ellipse;whiteSpace=wrap;html=1;" parent="1" vertex="1">
          <mxGeometry x="605" y="490" width="70" height="40" as="geometry" />
        </mxCell>
        <mxCell id="O2b9Vi96orQ5hWpseoit-5" value="" style="endArrow=none;html=1;rounded=0;" parent="1" source="O2b9Vi96orQ5hWpseoit-1" target="O2b9Vi96orQ5hWpseoit-4" edge="1">
          <mxGeometry width="50" height="50" relative="1" as="geometry">
            <mxPoint x="369" y="410" as="sourcePoint" />
            <mxPoint x="419" y="360" as="targetPoint" />
          </mxGeometry>
        </mxCell>
        <mxCell id="O2b9Vi96orQ5hWpseoit-6" value="Fecha" style="ellipse;whiteSpace=wrap;html=1;" parent="1" vertex="1">
          <mxGeometry x="660" y="360" width="60" height="40" as="geometry" />
        </mxCell>
        <mxCell id="O2b9Vi96orQ5hWpseoit-7" value="" style="endArrow=none;html=1;rounded=0;" parent="1" target="O2b9Vi96orQ5hWpseoit-1" edge="1" source="O2b9Vi96orQ5hWpseoit-6">
          <mxGeometry width="50" height="50" relative="1" as="geometry">
            <mxPoint x="640" y="320" as="sourcePoint" />
            <mxPoint x="439" y="370" as="targetPoint" />
          </mxGeometry>
        </mxCell>
        <mxCell id="O2b9Vi96orQ5hWpseoit-8" value="Duracion" style="ellipse;whiteSpace=wrap;html=1;" parent="1" vertex="1">
          <mxGeometry x="690" y="405" width="70" height="50" as="geometry" />
        </mxCell>
        <mxCell id="O2b9Vi96orQ5hWpseoit-9" value="" style="endArrow=none;html=1;rounded=0;" parent="1" source="O2b9Vi96orQ5hWpseoit-1" target="O2b9Vi96orQ5hWpseoit-8" edge="1">
          <mxGeometry width="50" height="50" relative="1" as="geometry">
            <mxPoint x="559" y="340" as="sourcePoint" />
            <mxPoint x="609" y="290" as="targetPoint" />
          </mxGeometry>
        </mxCell>
        <mxCell id="O2b9Vi96orQ5hWpseoit-10" value="Lugar" style="ellipse;whiteSpace=wrap;html=1;" parent="1" vertex="1">
          <mxGeometry x="570" y="295" width="70" height="50" as="geometry" />
        </mxCell>
        <mxCell id="O2b9Vi96orQ5hWpseoit-11" value="" style="endArrow=none;html=1;rounded=0;" parent="1" source="O2b9Vi96orQ5hWpseoit-1" target="O2b9Vi96orQ5hWpseoit-10" edge="1">
          <mxGeometry width="50" height="50" relative="1" as="geometry">
            <mxPoint x="549" y="330" as="sourcePoint" />
            <mxPoint x="599" y="280" as="targetPoint" />
          </mxGeometry>
        </mxCell>
        <mxCell id="O2b9Vi96orQ5hWpseoit-12" value="USUARIO" style="rounded=0;whiteSpace=wrap;html=1;" parent="1" vertex="1">
          <mxGeometry x="559" y="40" width="120" height="60" as="geometry" />
        </mxCell>
        <mxCell id="O2b9Vi96orQ5hWpseoit-13" value="Nombre" style="ellipse;whiteSpace=wrap;html=1;" parent="1" vertex="1">
          <mxGeometry x="535" y="-25" width="60" height="40" as="geometry" />
        </mxCell>
        <mxCell id="O2b9Vi96orQ5hWpseoit-14" value="" style="endArrow=none;html=1;rounded=0;" parent="1" source="O2b9Vi96orQ5hWpseoit-12" target="O2b9Vi96orQ5hWpseoit-13" edge="1">
          <mxGeometry width="50" height="50" relative="1" as="geometry">
            <mxPoint x="605" y="25" as="sourcePoint" />
            <mxPoint x="655" y="-25" as="targetPoint" />
          </mxGeometry>
        </mxCell>
        <mxCell id="O2b9Vi96orQ5hWpseoit-15" value="Email" style="ellipse;whiteSpace=wrap;html=1;" parent="1" vertex="1">
          <mxGeometry x="605" y="-25" width="60" height="40" as="geometry" />
        </mxCell>
        <mxCell id="O2b9Vi96orQ5hWpseoit-16" value="" style="endArrow=none;html=1;rounded=0;" parent="1" source="O2b9Vi96orQ5hWpseoit-12" target="O2b9Vi96orQ5hWpseoit-15" edge="1">
          <mxGeometry width="50" height="50" relative="1" as="geometry">
            <mxPoint x="695" y="55" as="sourcePoint" />
            <mxPoint x="745" y="5" as="targetPoint" />
          </mxGeometry>
        </mxCell>
        <mxCell id="O2b9Vi96orQ5hWpseoit-17" value="Contraseña" style="ellipse;whiteSpace=wrap;html=1;" parent="1" vertex="1">
          <mxGeometry x="675" y="-25" width="90" height="60" as="geometry" />
        </mxCell>
        <mxCell id="O2b9Vi96orQ5hWpseoit-19" value="" style="endArrow=none;html=1;rounded=0;" parent="1" source="O2b9Vi96orQ5hWpseoit-12" target="O2b9Vi96orQ5hWpseoit-17" edge="1">
          <mxGeometry width="50" height="50" relative="1" as="geometry">
            <mxPoint x="695" y="95" as="sourcePoint" />
            <mxPoint x="745" y="45" as="targetPoint" />
          </mxGeometry>
        </mxCell>
        <mxCell id="O2b9Vi96orQ5hWpseoit-20" value="&lt;u&gt;Id_usuario&lt;/u&gt;" style="ellipse;whiteSpace=wrap;html=1;" parent="1" vertex="1">
          <mxGeometry x="720" y="45" width="80" height="50" as="geometry" />
        </mxCell>
        <mxCell id="O2b9Vi96orQ5hWpseoit-21" value="" style="endArrow=none;html=1;rounded=0;" parent="1" source="O2b9Vi96orQ5hWpseoit-12" target="O2b9Vi96orQ5hWpseoit-20" edge="1">
          <mxGeometry width="50" height="50" relative="1" as="geometry">
            <mxPoint x="675" y="155" as="sourcePoint" />
            <mxPoint x="715" y="70" as="targetPoint" />
          </mxGeometry>
        </mxCell>
        <mxCell id="O2b9Vi96orQ5hWpseoit-22" value="ORGANIZADOR" style="rounded=0;whiteSpace=wrap;html=1;" parent="1" vertex="1">
          <mxGeometry x="130" y="90" width="120" height="60" as="geometry" />
        </mxCell>
        <mxCell id="O2b9Vi96orQ5hWpseoit-23" value="&lt;u&gt;Id_organizador&lt;/u&gt;" style="ellipse;whiteSpace=wrap;html=1;" parent="1" vertex="1">
          <mxGeometry y="50" width="120" height="40" as="geometry" />
        </mxCell>
        <mxCell id="O2b9Vi96orQ5hWpseoit-24" value="" style="endArrow=none;html=1;rounded=0;" parent="1" source="O2b9Vi96orQ5hWpseoit-22" target="O2b9Vi96orQ5hWpseoit-23" edge="1">
          <mxGeometry width="50" height="50" relative="1" as="geometry">
            <mxPoint x="160" y="60" as="sourcePoint" />
            <mxPoint x="210" y="10" as="targetPoint" />
          </mxGeometry>
        </mxCell>
        <mxCell id="O2b9Vi96orQ5hWpseoit-25" value="Nombre" style="ellipse;whiteSpace=wrap;html=1;" parent="1" vertex="1">
          <mxGeometry x="10" y="100" width="70" height="40" as="geometry" />
        </mxCell>
        <mxCell id="O2b9Vi96orQ5hWpseoit-26" value="" style="endArrow=none;html=1;rounded=0;" parent="1" source="O2b9Vi96orQ5hWpseoit-25" target="O2b9Vi96orQ5hWpseoit-22" edge="1">
          <mxGeometry width="50" height="50" relative="1" as="geometry">
            <mxPoint x="110" y="220" as="sourcePoint" />
            <mxPoint x="160" y="170" as="targetPoint" />
          </mxGeometry>
        </mxCell>
        <mxCell id="O2b9Vi96orQ5hWpseoit-27" value="Telefono" style="ellipse;whiteSpace=wrap;html=1;" parent="1" vertex="1">
          <mxGeometry x="15" y="150" width="70" height="30" as="geometry" />
        </mxCell>
        <mxCell id="O2b9Vi96orQ5hWpseoit-28" value="" style="endArrow=none;html=1;rounded=0;" parent="1" source="O2b9Vi96orQ5hWpseoit-27" target="O2b9Vi96orQ5hWpseoit-22" edge="1">
          <mxGeometry width="50" height="50" relative="1" as="geometry">
            <mxPoint x="120" y="210" as="sourcePoint" />
            <mxPoint x="170" y="160" as="targetPoint" />
          </mxGeometry>
        </mxCell>
        <mxCell id="O2b9Vi96orQ5hWpseoit-29" value="Email" style="ellipse;whiteSpace=wrap;html=1;" parent="1" vertex="1">
          <mxGeometry x="10" y="190" width="60" height="30" as="geometry" />
        </mxCell>
        <mxCell id="O2b9Vi96orQ5hWpseoit-30" value="" style="endArrow=none;html=1;rounded=0;" parent="1" source="O2b9Vi96orQ5hWpseoit-29" target="O2b9Vi96orQ5hWpseoit-22" edge="1">
          <mxGeometry width="50" height="50" relative="1" as="geometry">
            <mxPoint x="100" y="240" as="sourcePoint" />
            <mxPoint x="150" y="190" as="targetPoint" />
          </mxGeometry>
        </mxCell>
        <mxCell id="O2b9Vi96orQ5hWpseoit-31" value="se inscribe" style="rhombus;whiteSpace=wrap;html=1;" parent="1" vertex="1">
          <mxGeometry x="364" y="65" width="100" height="80" as="geometry" />
        </mxCell>
        <mxCell id="O2b9Vi96orQ5hWpseoit-32" value="" style="endArrow=none;html=1;rounded=0;" parent="1" source="O2b9Vi96orQ5hWpseoit-1" target="O2b9Vi96orQ5hWpseoit-31" edge="1">
          <mxGeometry width="50" height="50" relative="1" as="geometry">
            <mxPoint x="340" y="220" as="sourcePoint" />
            <mxPoint x="390" y="170" as="targetPoint" />
          </mxGeometry>
        </mxCell>
        <mxCell id="O2b9Vi96orQ5hWpseoit-34" value="" style="endArrow=none;html=1;rounded=0;exitX=1;exitY=0.5;exitDx=0;exitDy=0;" parent="1" source="O2b9Vi96orQ5hWpseoit-31" target="WOfSyOvSdD_geZ2x93UE-3" edge="1">
          <mxGeometry width="50" height="50" relative="1" as="geometry">
            <mxPoint x="340" y="220" as="sourcePoint" />
            <mxPoint x="390" y="170" as="targetPoint" />
            <Array as="points">
              <mxPoint x="464" y="230" />
            </Array>
          </mxGeometry>
        </mxCell>
        <mxCell id="O2b9Vi96orQ5hWpseoit-35" value="organiza" style="rhombus;whiteSpace=wrap;html=1;" parent="1" vertex="1">
          <mxGeometry x="150" y="305" width="80" height="80" as="geometry" />
        </mxCell>
        <mxCell id="O2b9Vi96orQ5hWpseoit-36" value="" style="endArrow=none;html=1;rounded=0;" parent="1" source="O2b9Vi96orQ5hWpseoit-35" target="O2b9Vi96orQ5hWpseoit-22" edge="1">
          <mxGeometry width="50" height="50" relative="1" as="geometry">
            <mxPoint x="190" y="250" as="sourcePoint" />
            <mxPoint x="240" y="200" as="targetPoint" />
          </mxGeometry>
        </mxCell>
        <mxCell id="O2b9Vi96orQ5hWpseoit-37" value="" style="endArrow=none;html=1;rounded=0;entryX=0;entryY=0.5;entryDx=0;entryDy=0;exitX=1;exitY=0.5;exitDx=0;exitDy=0;" parent="1" source="O2b9Vi96orQ5hWpseoit-35" target="O2b9Vi96orQ5hWpseoit-1" edge="1">
          <mxGeometry width="50" height="50" relative="1" as="geometry">
            <mxPoint x="240" y="510" as="sourcePoint" />
            <mxPoint x="290" y="460" as="targetPoint" />
          </mxGeometry>
        </mxCell>
        <mxCell id="O2b9Vi96orQ5hWpseoit-39" value="" style="endArrow=none;html=1;rounded=0;entryX=0.5;entryY=1;entryDx=0;entryDy=0;" parent="1" target="O2b9Vi96orQ5hWpseoit-1" edge="1">
          <mxGeometry width="50" height="50" relative="1" as="geometry">
            <mxPoint x="414" y="450" as="sourcePoint" />
            <mxPoint x="320" y="440" as="targetPoint" />
          </mxGeometry>
        </mxCell>
        <mxCell id="p0y8SW8UQK-Zpm-RRnzA-1" value="CATEGORIA" style="rounded=0;whiteSpace=wrap;html=1;" parent="1" vertex="1">
          <mxGeometry x="354" y="600" width="120" height="60" as="geometry" />
        </mxCell>
        <mxCell id="p0y8SW8UQK-Zpm-RRnzA-2" value="es" style="rhombus;whiteSpace=wrap;html=1;" parent="1" vertex="1">
          <mxGeometry x="374" y="450" width="80" height="80" as="geometry" />
        </mxCell>
        <mxCell id="p0y8SW8UQK-Zpm-RRnzA-3" value="" style="endArrow=none;html=1;rounded=0;" parent="1" source="p0y8SW8UQK-Zpm-RRnzA-1" target="p0y8SW8UQK-Zpm-RRnzA-2" edge="1">
          <mxGeometry width="50" height="50" relative="1" as="geometry">
            <mxPoint x="240" y="540" as="sourcePoint" />
            <mxPoint x="290" y="490" as="targetPoint" />
          </mxGeometry>
        </mxCell>
        <mxCell id="p0y8SW8UQK-Zpm-RRnzA-5" value="&lt;u&gt;Id_categoria&lt;/u&gt;" style="ellipse;whiteSpace=wrap;html=1;" parent="1" vertex="1">
          <mxGeometry x="514" y="585" width="106" height="40" as="geometry" />
        </mxCell>
        <mxCell id="p0y8SW8UQK-Zpm-RRnzA-6" value="" style="endArrow=none;html=1;rounded=0;" parent="1" source="p0y8SW8UQK-Zpm-RRnzA-1" target="p0y8SW8UQK-Zpm-RRnzA-5" edge="1">
          <mxGeometry width="50" height="50" relative="1" as="geometry">
            <mxPoint x="464" y="580" as="sourcePoint" />
            <mxPoint x="514" y="530" as="targetPoint" />
          </mxGeometry>
        </mxCell>
        <mxCell id="p0y8SW8UQK-Zpm-RRnzA-7" value="Nombre" style="ellipse;whiteSpace=wrap;html=1;" parent="1" vertex="1">
          <mxGeometry x="528" y="650" width="67" height="30" as="geometry" />
        </mxCell>
        <mxCell id="p0y8SW8UQK-Zpm-RRnzA-8" value="" style="endArrow=none;html=1;rounded=0;" parent="1" source="p0y8SW8UQK-Zpm-RRnzA-7" target="p0y8SW8UQK-Zpm-RRnzA-1" edge="1">
          <mxGeometry width="50" height="50" relative="1" as="geometry">
            <mxPoint x="390" y="740" as="sourcePoint" />
            <mxPoint x="440" y="690" as="targetPoint" />
          </mxGeometry>
        </mxCell>
        <mxCell id="p0y8SW8UQK-Zpm-RRnzA-9" value="1:N" style="text;html=1;align=center;verticalAlign=middle;whiteSpace=wrap;rounded=0;" parent="1" vertex="1">
          <mxGeometry x="294" y="315" width="60" height="30" as="geometry" />
        </mxCell>
        <mxCell id="p0y8SW8UQK-Zpm-RRnzA-10" value="1:1" style="text;html=1;align=center;verticalAlign=middle;whiteSpace=wrap;rounded=0;" parent="1" vertex="1">
          <mxGeometry x="190" y="150" width="60" height="30" as="geometry" />
        </mxCell>
        <mxCell id="p0y8SW8UQK-Zpm-RRnzA-11" value="(1,N)" style="text;html=1;align=center;verticalAlign=middle;whiteSpace=wrap;rounded=0;" parent="1" vertex="1">
          <mxGeometry x="100" y="360" width="60" height="30" as="geometry" />
        </mxCell>
        <mxCell id="p0y8SW8UQK-Zpm-RRnzA-12" value="0:N" style="text;html=1;align=center;verticalAlign=middle;whiteSpace=wrap;rounded=0;" parent="1" vertex="1">
          <mxGeometry x="505" y="200" width="60" height="30" as="geometry" />
        </mxCell>
        <mxCell id="p0y8SW8UQK-Zpm-RRnzA-13" value="0:N" style="text;html=1;align=center;verticalAlign=middle;whiteSpace=wrap;rounded=0;" parent="1" vertex="1">
          <mxGeometry x="404" y="285" width="60" height="30" as="geometry" />
        </mxCell>
        <mxCell id="p0y8SW8UQK-Zpm-RRnzA-14" value="(N,M)" style="text;html=1;align=center;verticalAlign=middle;whiteSpace=wrap;rounded=0;" parent="1" vertex="1">
          <mxGeometry x="330" y="50" width="60" height="30" as="geometry" />
        </mxCell>
        <mxCell id="p0y8SW8UQK-Zpm-RRnzA-15" value="1:1" style="text;html=1;align=center;verticalAlign=middle;whiteSpace=wrap;rounded=0;" parent="1" vertex="1">
          <mxGeometry x="414" y="570" width="60" height="30" as="geometry" />
        </mxCell>
        <mxCell id="p0y8SW8UQK-Zpm-RRnzA-17" value="0:N" style="text;html=1;align=center;verticalAlign=middle;whiteSpace=wrap;rounded=0;" parent="1" vertex="1">
          <mxGeometry x="414" y="375" width="60" height="30" as="geometry" />
        </mxCell>
        <mxCell id="p0y8SW8UQK-Zpm-RRnzA-18" value="(N,1)" style="text;html=1;align=center;verticalAlign=middle;whiteSpace=wrap;rounded=0;" parent="1" vertex="1">
          <mxGeometry x="464" y="475" width="60" height="30" as="geometry" />
        </mxCell>
        <mxCell id="WOfSyOvSdD_geZ2x93UE-1" value="Descripción" style="ellipse;whiteSpace=wrap;html=1;" vertex="1" parent="1">
          <mxGeometry x="474" y="395" width="85" height="50" as="geometry" />
        </mxCell>
        <mxCell id="WOfSyOvSdD_geZ2x93UE-2" value="" style="endArrow=none;html=1;rounded=0;" edge="1" parent="1" source="WOfSyOvSdD_geZ2x93UE-1" target="O2b9Vi96orQ5hWpseoit-1">
          <mxGeometry width="50" height="50" relative="1" as="geometry">
            <mxPoint x="419" y="270" as="sourcePoint" />
            <mxPoint x="469" y="220" as="targetPoint" />
          </mxGeometry>
        </mxCell>
        <mxCell id="WOfSyOvSdD_geZ2x93UE-3" value="PARTICIPANTE" style="rounded=0;whiteSpace=wrap;html=1;" vertex="1" parent="1">
          <mxGeometry x="559" y="200" width="120" height="60" as="geometry" />
        </mxCell>
        <mxCell id="WOfSyOvSdD_geZ2x93UE-4" value="" style="triangle;whiteSpace=wrap;html=1;rotation=90;" vertex="1" parent="1">
          <mxGeometry x="594" y="130" width="50" height="40" as="geometry" />
        </mxCell>
        <mxCell id="WOfSyOvSdD_geZ2x93UE-7" value="" style="endArrow=none;html=1;rounded=0;" edge="1" parent="1" source="WOfSyOvSdD_geZ2x93UE-4" target="O2b9Vi96orQ5hWpseoit-12">
          <mxGeometry width="50" height="50" relative="1" as="geometry">
            <mxPoint x="670" y="175" as="sourcePoint" />
            <mxPoint x="720" y="125" as="targetPoint" />
          </mxGeometry>
        </mxCell>
        <mxCell id="WOfSyOvSdD_geZ2x93UE-13" value="" style="endArrow=none;html=1;rounded=0;" edge="1" parent="1" source="WOfSyOvSdD_geZ2x93UE-3" target="WOfSyOvSdD_geZ2x93UE-4">
          <mxGeometry width="50" height="50" relative="1" as="geometry">
            <mxPoint x="340" y="280" as="sourcePoint" />
            <mxPoint x="390" y="230" as="targetPoint" />
          </mxGeometry>
        </mxCell>
        <mxCell id="WOfSyOvSdD_geZ2x93UE-15" value="&lt;u&gt;Id_usuario&lt;/u&gt;" style="ellipse;whiteSpace=wrap;html=1;" vertex="1" parent="1">
          <mxGeometry x="710" y="190" width="80" height="40" as="geometry" />
        </mxCell>
        <mxCell id="WOfSyOvSdD_geZ2x93UE-16" value="" style="endArrow=none;html=1;rounded=0;" edge="1" parent="1" source="WOfSyOvSdD_geZ2x93UE-3" target="WOfSyOvSdD_geZ2x93UE-15">
          <mxGeometry width="50" height="50" relative="1" as="geometry">
            <mxPoint x="340" y="280" as="sourcePoint" />
            <mxPoint x="390" y="230" as="targetPoint" />
          </mxGeometry>
        </mxCell>
      </root>
    </mxGraphModel>
  </diagram>
</mxfile>
